<!DOCTYPE svg PUBLIC "-//W3C//DTD SVG 1.1//EN" "http://www.w3.org/Graphics/SVG/1.1/DTD/svg11.dtd">
<!-- Uploaded to: SVG Repo, www.svgrepo.com, Transformed by: SVG Repo Mixer Tools -->
<svg height="800px" width="800px" version="1.1" id="Layer_1" xmlns="http://www.w3.org/2000/svg" xmlns:xlink="http://www.w3.org/1999/xlink" viewBox="0 0 512 512" xml:space="preserve" fill="#000000">
<g id="SVGRepo_bgCarrier" stroke-width="0"/>
<g id="SVGRepo_tracerCarrier" stroke-linecap="round" stroke-linejoin="round"/>
<g id="SVGRepo_iconCarrier"> <g transform="translate(1 1)"> <path style="fill:#9862fe;" d="M109.933,485.4H101.4c-14.507,0-25.6-11.093-25.6-25.6v-34.133h59.733V459.8 C135.533,474.307,124.44,485.4,109.933,485.4"/> <path style="fill:#FFFFFF;" d="M75.8,459.8v-34.133H50.2V459.8c0,14.507,11.093,25.6,25.6,25.6h25.6 C86.893,485.4,75.8,474.307,75.8,459.8"/> <path style="fill:#9862fe;" d="M391.533,485.4h8.533c14.507,0,25.6-11.093,25.6-25.6v-34.133h-59.733V459.8 C365.933,474.307,377.027,485.4,391.533,485.4"/> <path style="fill:#9862fe;" d="M425.667,459.8v-34.133h25.6V459.8c0,14.507-11.093,25.6-25.6,25.6h-25.6 C414.573,485.4,425.667,474.307,425.667,459.8"/> <path style="fill:#9862fe;" d="M459.8,425.667H50.2c-9.387,0-17.067-7.68-17.067-17.067v-17.067c0-9.387,7.68-17.067,17.067-17.067 h409.6c9.387,0,17.067,7.68,17.067,17.067V408.6C476.867,417.987,469.187,425.667,459.8,425.667"/> <path style="fill:#FFFFFF;" d="M33.133,408.6v-17.067c0-9.387,7.68-17.067,17.067-17.067H24.6c-9.387,0-17.067,7.68-17.067,17.067 V408.6c0,9.387,7.68,17.067,17.067,17.067h25.6C40.813,425.667,33.133,417.987,33.133,408.6"/> <path style="fill:#9862fe;" d="M485.4,374.467h-25.6c9.387,0,17.067,7.68,17.067,17.067V408.6c0,9.387-7.68,17.067-17.067,17.067 h25.6c9.387,0,17.067-7.68,17.067-17.067v-17.067C502.467,382.147,494.787,374.467,485.4,374.467"/> <path style="fill:#FFFFFF;" d="M62.147,255.853l18.773-43.52H50.2l-22.187,43.52c-2.56,5.12-3.413,10.24-3.413,16.213v102.4h34.133 v-102.4C58.733,266.093,59.587,260.973,62.147,255.853"/> <path style="fill:#9862fe;" d="M481.987,255.853l-22.187-43.52h-30.72l18.773,43.52c1.707,5.12,3.413,10.24,3.413,15.36v102.4 H485.4V272.067C485.4,266.093,484.547,260.973,481.987,255.853"/> <path style="fill:#9862fe;" d="M459.8,374.467H50.2v-102.4c0-5.12,0.853-10.24,3.413-15.36l19.627-44.373h364.373l19.627,43.52 c1.707,5.12,3.413,10.24,3.413,15.36v103.253H459.8z"/> <g> <path style="fill:#63D3FD;" d="M84.333,323.267H152.6V280.6H84.333V323.267z"/> <path style="fill:#63D3FD;" d="M357.4,323.267h68.267V280.6H357.4V323.267z"/> <path style="fill:#63D3FD;" d="M425.667,212.333H84.333l35.84-158.72C124.44,36.547,137.24,24.6,151.747,24.6h206.507 c14.507,0,27.307,11.947,31.573,29.013L425.667,212.333z"/> </g> <path style="fill:#FFFFFF;" d="M151.747,24.6h-20.48c-17.92,0-33.28,11.947-37.547,29.013L50.2,212.333h34.133l35.84-158.72 C124.44,36.547,137.24,24.6,151.747,24.6"/> <path style="fill:#3DB9F9;" d="M416.28,53.613C412.013,36.547,395.8,24.6,378.733,24.6h-20.48 c14.507,0,27.307,11.947,31.573,29.013l35.84,158.72H459.8L416.28,53.613z"/> <g> <path style="fill:#9862fe;" d="M34.84,144.067H14.36c-3.413,0-6.827-3.413-6.827-6.827V82.627c0-3.413,3.413-6.827,6.827-6.827 h19.627c4.267,0,7.68,3.413,7.68,6.827v53.76C41.667,140.653,38.253,144.067,34.84,144.067"/> <path style="fill:#9862fe;" d="M475.16,144.067h19.627c4.267,0,6.827-3.413,6.827-6.827V82.627 c0.853-3.413-2.56-6.827-5.973-6.827h-19.627c-4.267,0-7.68,3.413-7.68,6.827v53.76 C468.333,140.653,471.747,144.067,475.16,144.067"/> </g> <path d="M75.8,118.467H41.667c-5.12,0-8.533-3.413-8.533-8.533s3.413-8.533,8.533-8.533H75.8c5.12,0,8.533,3.413,8.533,8.533 S80.92,118.467,75.8,118.467z"/> <path d="M34.84,152.6H14.36C5.827,152.6-1,145.773-1,137.24V82.627c0-8.533,6.827-15.36,15.36-15.36h19.627 c9.387,0,16.213,6.827,16.213,15.36v53.76C50.2,145.773,43.373,152.6,34.84,152.6z M16.067,135.533h17.067v-51.2H16.067V135.533z"/> <path d="M109.933,493.933H75.8c-18.773,0-34.133-15.36-34.133-34.133v-42.667h102.4V459.8 C144.067,478.573,128.707,493.933,109.933,493.933z M58.733,434.2v25.6c0,9.387,7.68,17.067,17.067,17.067h34.133 c9.387,0,17.067-7.68,17.067-17.067v-25.6H58.733z"/> <path d="M425.667,493.933h-34.133c-18.773,0-34.133-15.36-34.133-34.133v-42.667h102.4V459.8 C459.8,478.573,444.44,493.933,425.667,493.933z M374.467,434.2v25.6c0,9.387,7.68,17.067,17.067,17.067h34.133 c9.387,0,17.067-7.68,17.067-17.067v-25.6H374.467z"/> <path id="SVGCleanerId_0" d="M485.4,434.2H24.6C10.093,434.2-1,423.107-1,408.6v-17.067c0-14.507,11.093-25.6,25.6-25.6h460.8 c14.507,0,25.6,11.093,25.6,25.6V408.6C511,423.107,499.907,434.2,485.4,434.2z M24.6,383c-5.12,0-8.533,3.413-8.533,8.533V408.6 c0,5.12,3.413,8.533,8.533,8.533h460.8c5.12,0,8.533-3.413,8.533-8.533v-17.067c0-5.12-3.413-8.533-8.533-8.533H24.6z"/> <path d="M493.933,383H16.067V272.067c0-6.827,1.707-13.653,4.267-19.627L45.08,203.8h419.84l24.747,48.64 c2.56,5.973,4.267,12.8,4.267,19.627L493.933,383L493.933,383z M33.133,365.933h443.733v-93.867c0-4.267-0.853-7.68-2.56-11.947 l-19.627-39.253H55.32L35.693,260.12c-1.707,3.413-2.56,7.68-2.56,11.947V365.933z"/> <path d="M470.893,220.867H39.107l46.08-169.813c5.973-20.48,24.747-34.987,46.08-34.987h247.467 c21.333,0,40.107,14.507,46.08,34.987L470.893,220.867z M61.293,203.8h387.413L408.6,55.32 c-4.267-12.8-16.213-22.187-29.867-22.187H131.267c-13.653,0-25.6,9.387-29.867,22.187L61.293,203.8z"/> <path d="M152.6,331.8H84.333c-5.12,0-8.533-3.413-8.533-8.533V280.6c0-5.12,3.413-8.533,8.533-8.533H152.6 c5.12,0,8.533,3.413,8.533,8.533v42.667C161.133,328.387,157.72,331.8,152.6,331.8z M92.867,314.733h51.2v-25.6h-51.2V314.733z"/> <path d="M425.667,331.8H357.4c-5.12,0-8.533-3.413-8.533-8.533V280.6c0-5.12,3.413-8.533,8.533-8.533h68.267 c5.12,0,8.533,3.413,8.533,8.533v42.667C434.2,328.387,430.787,331.8,425.667,331.8z M365.933,314.733h51.2v-25.6h-51.2V314.733z"/> <path d="M289.133,289.133h-68.267c-5.12,0-8.533-3.413-8.533-8.533c0-5.12,3.413-8.533,8.533-8.533h68.267 c5.12,0,8.533,3.413,8.533,8.533C297.667,285.72,294.253,289.133,289.133,289.133z"/> <path d="M314.733,323.267H195.267c-5.12,0-8.533-3.413-8.533-8.533c0-5.12,3.413-8.533,8.533-8.533h119.467 c5.12,0,8.533,3.413,8.533,8.533C323.267,319.853,319.853,323.267,314.733,323.267z"/> <path d="M152.6,220.867c-2.56,0-4.267-0.853-5.973-2.56c-3.413-3.413-3.413-8.533,0-11.947l76.8-76.8 c3.413-3.413,8.533-3.413,11.947,0s3.413,8.533,0,11.947l-76.8,76.8C156.867,220.013,155.16,220.867,152.6,220.867z"/> <path d="M186.733,186.733c-5.12,0-8.533-3.413-8.533-8.533v-34.133c0-5.12,3.413-8.533,8.533-8.533c5.12,0,8.533,3.413,8.533,8.533 V178.2C195.267,183.32,191.853,186.733,186.733,186.733z"/> <path d="M272.067,220.867c-2.56,0-4.267-0.853-5.973-2.56c-3.413-3.413-3.413-8.533,0-11.947l76.8-76.8 c3.413-3.413,8.533-3.413,11.947,0c3.413,3.413,3.413,8.533,0,11.947l-76.8,76.8C276.333,220.013,274.627,220.867,272.067,220.867z "/> <path d="M306.2,186.733c-5.12,0-8.533-3.413-8.533-8.533v-34.133c0-5.12,3.413-8.533,8.533-8.533s8.533,3.413,8.533,8.533V178.2 C314.733,183.32,311.32,186.733,306.2,186.733z"/> <path d="M468.333,118.467H434.2c-5.12,0-8.533-3.413-8.533-8.533s3.413-8.533,8.533-8.533h34.133c5.12,0,8.533,3.413,8.533,8.533 S473.453,118.467,468.333,118.467z"/> <path d="M495.64,152.6h-19.627c-8.533,0-15.36-6.827-15.36-15.36V82.627c0-8.533,6.827-15.36,15.36-15.36h19.627 c8.533,0,15.36,6.827,15.36,15.36v53.76C511,145.773,504.173,152.6,495.64,152.6z M476.867,135.533h17.067v-51.2h-17.067V135.533z"/> <g> <path id="SVGCleanerId_0_1_" d="M485.4,434.2H24.6C10.093,434.2-1,423.107-1,408.6v-17.067c0-14.507,11.093-25.6,25.6-25.6h460.8 c14.507,0,25.6,11.093,25.6,25.6V408.6C511,423.107,499.907,434.2,485.4,434.2z M24.6,383c-5.12,0-8.533,3.413-8.533,8.533V408.6 c0,5.12,3.413,8.533,8.533,8.533h460.8c5.12,0,8.533-3.413,8.533-8.533v-17.067c0-5.12-3.413-8.533-8.533-8.533H24.6z"/> </g> </g> </g>
</svg>